This is a stereoscopic 3D rip of The Green Hornet, for new 3D TVs or computers with Nvidia 3D Vision. Tested with Stereoscopic Player. Enjoy!

Title: The Green Hornet (2011)
Rated: PG-13
Runtime: 119 min
Genre: Action | Comedy | Crime

Description:
Playboy Britt Reid (Seth Rogen) becomes the new publisher of Los Angeles\' \"The Daily Sentinel\" after the sudden death of his father. Britt\'s party life is about to change when he and his driver and kung fu expert, Kato (Jay Chou), stop a robbery. With the help of Kato, Britt starts a new career of fighting crime as the masked superhero \"The Green Hornet\".
-From IMDB Page: http://www.imdb.com/title/tt0990407/

General
Unique ID : 236598747030246752382819948572403512984 (0xB1FF42DC1A5E5899A8DB9A54436B3698)
Complete name : [filepath]\\The Green Hornet 3D.mkv
Format : Matroska
File size : 11.3 GiB
Duration : 1h 58mn
Overall bit rate : 13.6 Mbps
Encoded date : UTC 2011-04-19 07:54:23
Writing application : mkvmerge v4.0.0 (\'The Stars were mine\') built on Jun 6 2010 16:18:42
Writing library : libebml v1.0.0 + libmatroska v1.0.0

Video
ID : 1
Format : AVC
Format/Info : Advanced Video Codec
Format profile : High@L4.1
Format settings, CABAC : Yes
Format settings, ReFrames : 2 frames
Format settings, GOP : M=3, N=15
Codec ID : V_MPEG4/ISO/AVC
Duration : 1h 58mn
Bit rate mode : Variable
Bit rate : 11.8 Mbps
Maximum bit rate : 18.1 Mbps
Width : 1 920 pixels
Height : 1 080 pixels
Display aspect ratio : 16:9
Frame rate : 23.976 fps
Color space : YUV
Chroma subsampling : 4:2:0
Bit depth : 8 bits
Scan type : Progressive
Bits/(Pixel*Frame) : 0.237
Stream size : 9.79 GiB (87%)
Language : English

Audio
ID : 2
Format : DTS
Format/Info : Digital Theater Systems
Codec ID : A_DTS
Duration : 1h 58mn
Bit rate mode : Constant
Bit rate : 1 510 Kbps
Channel(s) : 6 channels
Channel positions : Front: L C R, Side: L R, LFE
Sampling rate : 48.0 KHz
Bit depth : 16 bits
Compression mode : Lossy
Delay relative to video : 11ms
Stream size : 1.25 GiB (11%)
Language : English